PathFileType	4	(X/Y/Z)	TRAIL_071_EP_01_markers.trc
DataRate	CameraRate	NumFrames	NumMarkers	Units	OrigDataRate	OrigDataStartFrame	OrigNumFrames
200	200	4	44	mm	200	169	270
Frame#	Time	RSH			LSH			C7			LELB			LWR			RELB			RWR			RASI			LASI			SACR			P1			P2			LTHLP			LTHLD			LTHAP			LTHAD			LLEPI			LPAT			LTIAP			LTIAD			LTILAT			LLMAL			LHEEL			LMFS			LMFL			LP5MT			LP1MT			LTOE			RTHLP			RTHLD			RTHAP			RTHAD			RLEPI			RPAT			RTIAP			RTIAD			RTILAT			RLMAL			RHEEL			RMFS			RMFL			RP5MT			RP1MT			RTOE			
		X1	Y1	Z1	X2	Y2	Z2	X3	Y3	Z3	X4	Y4	Z4	X5	Y5	Z5	X6	Y6	Z6	X7	Y7	Z7	X8	Y8	Z8	X9	Y9	Z9	X10	Y10	Z10	X11	Y11	Z11	X12	Y12	Z12	X13	Y13	Z13	X14	Y14	Z14	X15	Y15	Z15	X16	Y16	Z16	X17	Y17	Z17	X18	Y18	Z18	X19	Y19	Z19	X20	Y20	Z20	X21	Y21	Z21	X22	Y22	Z22	X23	Y23	Z23	X24	Y24	Z24	X25	Y25	Z25	X26	Y26	Z26	X27	Y27	Z27	X28	Y28	Z28	X29	Y29	Z29	X30	Y30	Z30	X31	Y31	Z31	X32	Y32	Z32	X33	Y33	Z33	X34	Y34	Z34	X35	Y35	Z35	X36	Y36	Z36	X37	Y37	Z37	X38	Y38	Z38	X39	Y39	Z39	X40	Y40	Z40	X41	Y41	Z41	X42	Y42	Z42	X43	Y43	Z43	X44	Y44	Z44
169	        0.8400000334	     3107.1159243584	     1506.6006183624	      178.9191961288	     3024.8209238052	     1512.7985477448	     -133.4540843964	     2979.6220064163	     1522.5296020508	       43.4985756874	     2813.9796257019	     1294.7068214417	     -246.1472451687	     3032.3185920715	     1142.9026126862	     -242.2311604023	     3094.0568447113	     1202.1144628525	      333.3806991577	     3271.0815668106	     1157.2896242142	      120.1172471046	     3087.1832966805	      988.2864952087	      173.3496785164	     3112.5187277794	     1009.3381404877	      -87.3239040375	     2924.6822595596	     1046.1603403091	       34.6627831459	     2927.5774955750	     1045.3011989594	      -11.8368864059	     2927.3917675018	     1046.7298030853	       76.2101411819	     3101.6489267349	      718.4797525406	     -135.6410980225	     3141.9371962547	      616.2327528000	     -105.8982610703	     3179.8354387283	      735.7872128487	      -42.4540638924	     3205.0546407700	      646.5268135071	      -31.0482382774	     3173.5740900040	      533.2145690918	      -78.1307816505	     3237.5099658966	      547.5639700890	      -27.8262495995	     3237.1668815613	      382.5345039368	      -24.4664549828	     3249.9561309814	      276.5925526619	      -19.5521712303	     3183.9591264725	      315.3575658798	      -76.6552090645	     3231.4215898514	      119.8171377182	      -34.5616340637	     3186.6246461868	       61.7944411933	       22.0413208008	     3347.3933935165	      136.2586170435	        7.2807669640	     3345.1669216156	       64.8438557982	      -62.1170997620	     3404.5099020004	       81.3594534993	      -67.3922896385	     3397.5625038147	      110.2293506265	       34.0586304665	     3430.2909374237	      128.6622434855	        2.8210282326	     2929.3202161789	      741.8218851089	      201.0291814804	     2891.3072347641	      652.8969407082	      186.0862970352	     3029.8306345940	      698.0981230736	      142.6746845245	     2987.8913760185	      609.4346046448	      134.1394782066	     2835.0095748901	      550.7428646088	      164.7222042084	     2881.1197280884	      474.8359322548	      136.7066502571	     2718.6475396156	      443.9559578896	      128.2988190651	     2612.8437221050	      415.4267311096	      113.0813956261	     2647.8925049305	      503.3467411995	      157.3941111565	     2453.4758627415	      431.6246211529	      109.1791987419	     2435.0479543209	      469.3056046963	       42.9121255875	     2432.9489171505	      294.3104505539	       81.8367600441	     2364.5495325327	      332.6720297337	      138.3370161057	     2354.0844619274	      280.3209125996	      150.7005691528	     2387.1611952782	      246.7371672392	       57.6087832451	     2385.9172016382	      207.8264653683	      100.7784008980
170	        0.8450000286	     3124.3606805801	     1503.0024051666	      178.3376336098	     3041.6781306267	     1508.4245204926	     -134.0919733047	     2996.6198205948	     1518.7085866928	       42.7597761154	     2833.2011699677	     1287.8420352936	     -247.0984458923	     3052.7045130730	     1137.9959583282	     -242.7519559860	     3108.6141467094	     1199.6638774872	      334.3917131424	     3286.3329648972	     1149.2327451706	      122.7611303329	     3104.9526333809	      984.9306941032	      173.3802556992	     3129.6789050102	     1005.9345960617	      -87.6948833466	     2942.0572519302	     1042.0464277267	       34.5026254654	     2945.0614452362	     1041.3335561752	      -11.9404196739	     2944.6854591370	     1042.7705049515	       75.6516456604	     3119.6272373199	      715.5010104179	     -134.4095468521	     3159.9304080009	      613.3340597153	     -104.4538617134	     3196.2860822678	      733.5467934608	      -42.9620146751	     3223.3746051788	      645.5516219139	      -31.2801599503	     3190.0584697723	      529.1948914528	      -77.8437852859	     3254.7112703323	      542.9395437241	      -28.7829041481	     3252.2921562195	      377.3993849754	      -24.4725346565	     3263.4041309357	      271.2126970291	      -19.0926194191	     3196.9871520996	      310.7905387878	      -75.3304958344	     3242.1526908875	      114.7116273642	      -33.0486297607	     3196.9347000122	       57.4544072151	       23.8151550293	     3358.2925796509	      130.2787512541	        8.3965659142	     3355.3720712662	       58.2160390913	      -60.4231953621	     3414.8502349854	       74.1422250867	      -65.8294558525	     3408.5304737091	      103.9095968008	       35.2324247360	     3441.0419464111	      121.9712644815	        3.9314627647	     2948.9663243294	      737.3443245888	      201.7726302147	     2912.1266603470	      647.8181481361	      187.3467564583	     3049.8603582382	      694.3503618240	      143.3897614479	     3008.9084506035	      604.9988865852	      134.8413228989	     2857.2208285332	      545.1927185059	      166.3478612900	     2903.3988714218	      468.9427912235	      138.3965015411	     2739.1744256020	      440.9137070179	      129.1049122810	     2632.6003372669	      415.4961407185	      113.6630177498	     2669.9674725533	      502.0200610161	      158.5228443146	     2473.9600718021	      436.6100132465	      109.5562577248	     2457.0365250111	      474.5981097221	       42.8883433342	     2449.2276906967	      299.8655140400	       82.7214121819	     2382.2601139545	      340.7678008080	      139.2242908478	     2369.8310405016	      288.7305021286	      151.7033576965	     2401.9990116358	      253.7640929222	       58.8014125824	     2399.5143473148	      215.1121050119	      102.2270321846
171	        0.8500000238	     3141.5451169014	     1499.2114305496	      177.7700185776	     3058.6509704590	     1503.8019418716	     -134.8168253899	     3013.6920213699	     1514.6652460098	       42.0340895653	     2852.6477813721	     1280.6049585342	     -248.1061816216	     3073.3038187027	     1132.7396631241	     -243.3009743690	     3123.1063604355	     1197.0421075821	      335.5068564415	     3301.3207912445	     1140.8131122589	      125.6511211395	     3122.6491332054	      981.3535809517	      173.3428239822	     3146.9319462776	     1002.4524927139	      -88.1150960922	     2959.3536853790	     1037.7281904221	       34.4383716583	     2962.4716043472	     1037.1329784393	      -12.0168924332	     2961.9747996330	     1038.3644104004	       75.6162405014	     3137.7137899399	      712.6041650772	     -133.4311366081	     3177.8367757797	      610.4631423950	     -102.9710173607	     3213.4970426559	      732.0896387100	      -43.3373451233	     3241.8401241302	      644.6399688721	      -31.7584872246	     3206.4495086670	      524.9732732773	      -77.5648951530	     3271.6645002365	      537.9741191864	      -29.7877788544	     3267.0866250992	      372.0163404942	      -24.6611237526	     3276.3301134109	      265.5785679817	      -18.6121463776	     3209.6481323242	      306.0745894909	      -74.1341114044	     3252.2233724594	      109.3992888927	      -31.5533280373	     3206.3062191010	       53.0935637653	       25.5281329155	     3368.5607910156	      123.7507462502	        9.5962882042	     3364.9749755859	       51.0514266789	      -58.5821866989	     3424.4664907455	       66.3390979171	      -64.0930533409	     3418.4579849243	       97.1065014601	       36.7320775986	     3451.0929584503	      114.5658120513	        5.2893161774	     2968.7560796738	      732.5255274773	      202.5636434555	     2933.2990050316	      642.3757076263	      188.7015104294	     3069.9779391289	      690.3033256531	      143.9936161041	     3030.0700664520	      600.3537774086	      135.6713771820	     2879.6716332436	      539.2704010010	      167.8459644318	     2925.9475469589	      462.7978503704	      140.0496363640	     2760.0219845772	      437.5559091568	      130.1422119141	     2652.7967453003	      415.2921438217	      114.5253777504	     2692.4144625664	      500.4680156708	      159.8109602928	     2494.9806034565	      441.1319792271	      110.1928949356	     2479.4262647629	      479.3978035450	       43.1345105171	     2466.5034711361	      305.2779436111	       83.3083391190	     2400.5383551121	      348.3166992664	      139.9983763695	     2386.4382505417	      296.5650856495	      152.5956988335	     2417.8875982761	      260.2708339691	       60.0197315216	     2414.1862690449	      222.0174968243	      103.6304235458
172	        0.8550000191	     3158.6123704910	     1495.2440261841	      177.3245334625	     3075.6514072418	     1498.9230632782	     -135.5940103531	     3030.7352542877	     1510.4559659958	       41.3610339165	     2872.3788857460	     1273.0528116226	     -249.2731511593	     3094.1491127014	     1127.0626783371	     -243.8516914845	     3137.1731162071	     1194.1834688187	      336.6571664810	     3315.5645132065	     1132.2467327118	      128.5119652748	     3140.2798295021	      977.4738550186	      173.3275651932	     3163.7576818466	      999.1225004196	      -88.6107087135	     2977.0386815071	     1033.3286523819	       34.3792438507	     2979.8214435577	     1032.7451229095	      -11.9898915291	     2979.2419672012	     1033.7780714035	       75.5547881126	     3155.6082963943	      709.5993161201	     -131.5168142319	     3195.7005262375	      607.4379682541	     -101.5693545341	     3231.4771413803	      731.1699390411	      -43.5379743576	     3260.4269981384	      643.6091065407	      -32.3246121407	     3222.8002548218	      520.6852555275	      -77.2972702980	     3288.2612943649	      532.7883958817	      -30.7615995407	     3281.1967134476	      366.1871254444	      -24.9447226524	     3288.8894081116	      259.6784532070	      -18.1455016136	     3222.0664024353	      301.2201189995	      -73.1155276299	     3261.7733478546	      104.8971936107	      -30.1460623741	     3214.7983312607	       52.9981143773	       27.4806618690	     3378.8303136826	      116.5595501661	       11.5115046501	     3373.2548952103	       43.8949093223	      -56.6082000732	     3432.8664541245	       57.5372911990	      -62.0263218880	     3427.7048110962	       89.1177803278	       38.6247038841	     3460.3143930435	      106.1051487923	        6.9684386253	     2988.6082410812	      727.2219061852	      203.3553719521	     2954.4964432716	      636.4726424217	      190.1034712791	     3090.2914404869	      686.0590577126	      144.4290876389	     3051.9462227821	      595.5394506454	      136.7380023003	     2902.3767113686	      533.0336093903	      169.5057749748	     2948.7621188164	      456.4181268215	      141.7487859726	     2781.1679840088	      434.0148568153	      131.3102245331	     2673.4682321548	      414.7839248180	      115.6544089317	     2715.2018547058	      498.6602365971	      161.0701084137	     2516.4722204208	      445.2459812164	      111.0052466393	     2502.2262334824	      483.7316274643	       43.6267852783	     2484.3973517418	      310.1331889629	       84.6381187439	     2419.4925129414	      355.1080822945	      140.7836079597	     2403.8568288088	      303.7674725056	      153.4133553505	     2434.8664283752	      266.3591504097	       61.0584020615	     2430.0315678120	      228.3748835325	      104.9427390099
